HIERARCHY
ROOT MidHip
{
    OFFSET 0.0 0.0 0.0
    CHANNELS 6 Xposition Yposition Zposition Zrotation Xrotation Yrotation
    JOINT Spine
    {
        OFFSET 0.0 0.0 15.146358983784626
        CHANNELS 3 Zrotation Xrotation Yrotation
        JOINT MidShoulder
        {
            OFFSET 0.0 0.0 15.146358983784626
            CHANNELS 3 Zrotation Xrotation Yrotation
            JOINT Nose
            {
                OFFSET 0.0 0.0 10.907029408603726
                CHANNELS 3 Zrotation Xrotation Yrotation
                End Site
                {
                    OFFSET 0.0 0.0 4.362811763441491
                }
            }
            JOINT RightShoulder
            {
                OFFSET -8.871374963415981 0.0 0.0
                CHANNELS 3 Zrotation Xrotation Yrotation
                JOINT RightElbow
                {
                    OFFSET -12.658462303709804 0.0 0.0
                    CHANNELS 3 Zrotation Xrotation Yrotation
                    JOINT RightWrist
                    {
                        OFFSET -10.763211527027494 0.0 0.0
                        CHANNELS 3 Zrotation Xrotation Yrotation
                        End Site
                        {
                            OFFSET -3.044295943242542 3.044295943242542 0.0
                        }
                        End Site
                        {
                            OFFSET -4.305284610810997 0.0 0.0
                        }
                        End Site
                        {
                            OFFSET -3.044295943242542 -3.044295943242542 0.0
                        }
                    }
                }
            }
            JOINT LeftShoulder
            {
                OFFSET 8.871374963415981 0.0 0.0
                CHANNELS 3 Zrotation Xrotation Yrotation
                JOINT LeftElbow
                {
                    OFFSET 12.658462303709804 0.0 0.0
                    CHANNELS 3 Zrotation Xrotation Yrotation
                    JOINT LeftWrist
                    {
                        OFFSET 10.763211527027494 0.0 0.0
                        CHANNELS 3 Zrotation Xrotation Yrotation
                        End Site
                        {
                            OFFSET 3.044295943242542 3.044295943242542 0.0
                        }
                        End Site
                        {
                            OFFSET 4.305284610810997 0.0 0.0
                        }
                        End Site
                        {
                            OFFSET 3.044295943242542 -3.044295943242542 0.0
                        }
                    }
                }
            }
        }
    }
    JOINT RightHip
    {
        OFFSET -5.740190996448556 0.0 0.0
        CHANNELS 3 Zrotation Xrotation Yrotation
        JOINT RightKnee
        {
            OFFSET 0.0 0.0 -19.560286755079552
            CHANNELS 3 Zrotation Xrotation Yrotation
            JOINT RightAnkle
            {
                OFFSET 0.0 0.0 -20.709620248238927
                CHANNELS 3 Zrotation Xrotation Yrotation
                End Site
                {
                    OFFSET 0.0 5.857565165331191 -5.857565165331191
                }
                End Site
                {
                    OFFSET 0.0 -5.857565165331191 -5.857565165331191
                }
            }
        }
    }
    JOINT LeftHip
    {
        OFFSET 5.740190996448556 0.0 0.0
        CHANNELS 3 Zrotation Xrotation Yrotation
        JOINT LeftKnee
        {
            OFFSET 0.0 0.0 -19.560286755079552
            CHANNELS 3 Zrotation Xrotation Yrotation
            JOINT LeftAnkle
            {
                OFFSET 0.0 0.0 -20.709620248238927
                CHANNELS 3 Zrotation Xrotation Yrotation
                End Site
                {
                    OFFSET 0.0 5.857565165331191 -5.857565165331191
                }
                End Site
                {
                    OFFSET 0.0 -5.857565165331191 -5.857565165331191
                }
            }
        }
    }
}
MOTION
Frames: 6
Frame Time: 0.03333333333333333
-4.050196392172101 42.23108153883369 -40.75684416003156 20.978678335719444 -68.97260715464913 25.419746675556866 0.20341484975790422 -11.574652993615745 -2.512359928437873 -6.02936165964023 -1.8805852961193145e-14 -6.91814669536748e-16 1.987846675914698e-16 0.0 0.0 -36.301393386212375 -32.468742950207165 -40.213934655919935 146.86165687270167 5.643467956024965e-15 3.3382575959446625e-15 103.54539166887983 -52.196466122929294 106.95713248354292 -66.57665505914838 -23.653079460486428 58.907836180117435 -85.91896477614095 -1.0154084663834468e-14 -7.634313838987151e-16 -23.187299443486474 6.816428798246721 -177.08965150064293 0.41630431742003854 -22.741278967315047 5.97531595214252 0.7063639171541046 8.185544823034789 -2.78752805086167 -1.987846675914698e-16 -2.758691436281349e-33 1.5902773407317584e-15 0.35602031010843327 -19.720713486678825 -11.310617868452718 -1.1275475448916996 5.1290301174776225 -1.0476348745526671 0.0 0.0 0.0
-4.162063871997111 42.234493924100676 -40.704612981974115 20.564213313837893 -69.95344467734279 26.44257302413005 -0.2917432776541161 -11.092075589330639 -4.246184095530806 -4.924816940867181 8.362598236730567e-15 -1.3779902023130811e-16 0.0 0.0 0.0 13.776823127649772 -0.5171534827831755 -58.99414049037314 129.72473010646246 1.0166215920567068e-14 8.28364842606566e-15 34.671386566800784 -21.71928551157551 14.35761638152647 -66.62380590033902 -24.27698724801451 56.225473137955944 -84.86669530387667 -4.77439973359253e-16 8.182184059889245e-15 -25.534249202251768 20.599667149324326 -170.45915724088496 -0.5965214447297683 -21.843428168065397 4.055026773010653 0.8401083362976869 8.418415575595768 -2.0478770294611732 4.969616689786745e-16 1.2424041724466865e-17 7.951386703658792e-16 -0.499647532821454 -18.55975237817573 -13.712675757532503 -1.0607776917115042 4.917530856951482 0.22124151006099851 0.0 0.0 0.0
-4.233158811618402 42.2452434857934 -40.66568704510305 20.116106066101313 -70.316187498942 26.49208531581856 -0.5020370516592813 -10.809169339153115 -4.7832862188854 -4.751346975504365 -4.125356638837546e-15 -7.167125867049725e-17 9.93923337957349e-17 8.620910738379216e-35 9.93923337957349e-17 6.878041792893337 -4.397269599567545 -60.1372800079238 135.21989263625102 -1.1763118288441164e-14 -4.846018720621393e-15 37.029844324926756 -31.284374001980094 21.39198550165071 -68.23416079283226 -25.112949441240858 54.38120096579075 -83.01011169097839 5.1743222201184084e-15 -1.2409268650301044e-14 -24.313750419017985 19.95539786969442 -171.23424097764772 -1.0407939701633264 -21.59366396532166 3.161307107441261 0.9094720463605561 8.605722457744585 -1.542493549434079 0.0 0.0 4.969616689786745e-17 -0.8797377643202405 -18.498067578261683 -14.713386604138076 -1.1160297011981466 5.261359133748208 0.5801929994720363 0.0 1.2424041724466862e-17 0.0
-4.247662548604147 42.39100860572299 -40.60169531645335 18.346393810023883 -70.52148770641243 24.724786077110938 -0.574909744886006 -10.86960032776572 -4.818200242517725 -3.865281606943504 1.1570259146496892e-14 9.20771498277984e-17 1.9878466759146985e-16 1.7241821476758432e-34 9.939233379573492e-17 -14.351453036719827 -14.26574159240105 -59.65572680059279 135.7434734286897 1.0684790102769352e-14 -9.389026685197563e-15 56.76350746936299 -53.757994472701895 50.906636453536244 -68.61967551590098 -24.776656632050564 54.3822010558398 -83.12934588182982 -7.318185135493076e-15 2.012476414219395e-15 -23.058264196324796 18.25524070334587 -172.40480545580013 -1.1807333355684655 -21.521440733160887 2.573703781151142 0.8909600719642161 8.71928119871931 -0.4386469205489477 0.0 0.0 -5.963540027744094e-16 -0.9902552207831473 -18.30078797003422 -14.852243576753866 -1.1467724140456095 5.5193259597823925 0.6222121606150163 0.0 0.0 7.951386703658792e-16
-4.236884816512144 42.33756037779517 -40.60087541944334 17.69553354920746 -70.6113684504498 24.11132382542778 -0.5925073559225943 -10.964480495724677 -5.005537891488293 -3.8167696607951824 2.465258790683956e-14 1.252898437397565e-16 0.0 0.0 0.0 -64.48353467861199 -36.76740755519851 -78.00810445640413 139.5589623471059 7.0683784643182895e-15 -7.85917485528152e-16 144.3109833724409 -54.440921369957344 149.70078950591312 -70.97667562543157 -26.512560208904333 52.141036416875686 -80.809319271205 -9.082299664953692e-16 -7.730916598050077e-16 -23.118411584923034 15.33897425216597 -173.55678842092394 -1.1981792001215594 -21.393109598242475 2.304725840211566 0.8354508622285209 8.478706356093888 -0.08757480817526762 -9.93923337957349e-17 6.361109362927035e-15 -4.969616689786746e-16 -1.0049622704420507 -18.189997480376068 -14.66029400835473 -1.0978685582132994 5.406855921721687 0.3458857115383168 0.0 0.0 -7.951386703658792e-16
-4.250070900877398 42.33314245235638 -40.52387711143873 18.30475577964132 -70.73638130766524 24.774427509727495 -0.6047032473054236 -10.835116785231897 -5.197080909415391 -3.142337284125771 3.220548866876531e-15 -5.082420466605741e-16 0.0 0.0 0.0 -22.070659747241915 -20.333170315550735 -60.27190506519467 142.2008972815748 4.120853995921159e-15 -1.2036337136054825e-14 80.11001171599123 -63.95889002249249 79.01836156195463 -73.38508901258064 -26.72631182502103 50.22035503712714 -79.03599199596367 7.728042543004148e-15 -1.871338816099264e-15 -26.06353348916245 15.306333170291 -172.64301204013927 -1.215088670580734 -21.03513353776177 2.092385273018318 0.8077073623944264 8.367898164471564 0.4925927003046402 2.981770013872047e-16 -1.2424041724466862e-17 -3.975693351829396e-16 -1.0251692536109538 -17.976509496395636 -14.625651626400973 -1.0974304669495072 5.471433786417688 -0.09565401215094244 0.0 0.0 0.0
